<svg width="33" height="35" viewBox="0 0 33 35" fill="none" xmlns="http://www.w3.org/2000/svg">
<g clip-path="url(#clip0_1_880)">
<path d="M32.9451 19.8327L30.4401 4.76516C30.0997 2.71799 28.2521 1.34605 26.3223 1.70708L4.8377 5.72507C2.90744 6.08603 1.61397 8.04519 1.9543 10.0924L2.13836 11.1996C0.881274 11.7813 0 13.1115 0 14.6567V29.5802C0 31.659 1.59458 33.3502 3.55457 33.3502H24.882C26.8419 33.3502 28.4365 31.659 28.4365 29.5802V24.5039L30.0617 24.2C30.9967 24.0251 31.8116 23.4745 32.3562 22.6496C32.9008 21.8247 33.1099 20.8242 32.9451 19.8327ZM30.768 21.4701C30.5205 21.8451 30.15 22.0953 29.725 22.1749L28.4365 22.4158V21.2438V16.5793V14.6566C28.4365 12.5778 26.8419 10.8866 24.882 10.8866H4.05518L3.86375 9.73525C3.78878 9.28449 3.88391 8.82976 4.13144 8.45475C4.37897 8.07981 4.74942 7.82955 5.17441 7.75004L26.659 3.73211C26.7535 3.71443 26.8475 3.70593 26.9404 3.70593C27.7092 3.70593 28.3928 4.29186 28.5308 5.12214L31.0357 20.1896C31.1106 20.6405 31.0155 21.0952 30.768 21.4701ZM24.882 31.2938H3.55457C2.66366 31.2938 1.93885 30.5251 1.93885 29.5802V22.272H26.4977V29.5801C26.4977 30.5251 25.7729 31.2938 24.882 31.2938ZM3.55457 12.943H24.882C25.7729 12.943 26.4977 13.7118 26.4977 14.6567V15.5512H1.93885V14.6567C1.93885 13.7118 2.66366 12.943 3.55457 12.943ZM26.4977 17.6075V20.2157H1.93885V17.6075H26.4977Z" fill="#041E42"/>
<path d="M9.32931 27.165H4.93134C4.39596 27.165 3.96191 27.6254 3.96191 28.1932C3.96191 28.7611 4.39596 29.2214 4.93134 29.2214H9.32931C9.86469 29.2214 10.2987 28.7611 10.2987 28.1932C10.2987 27.6254 9.86469 27.165 9.32931 27.165Z" fill="#041E42"/>
</g>
<defs>
<clipPath id="clip0_1_880">
<rect width="33" height="35" fill="white"/>
</clipPath>
</defs>
</svg>
