<svg width="33" height="35" viewBox="0 0 33 35" fill="none" xmlns="http://www.w3.org/2000/svg">
<path d="M16.5 0C8.50362 0 1.99805 6.89985 1.99805 15.3809C1.99805 16.3207 1.99805 23.5914 1.99805 23.7207C1.99805 25.4169 3.29916 26.7969 4.89844 26.7969H6.03152C6.43062 27.9903 7.50524 28.8477 8.76562 28.8477C10.3649 28.8477 11.666 27.4677 11.666 25.7715V17.4316C11.666 15.7354 10.3649 14.3555 8.76562 14.3555C7.50524 14.3555 6.43062 15.2128 6.03152 16.4062H4.89844C4.55948 16.4062 4.23425 16.4688 3.93164 16.5826V15.3809C3.93164 8.03065 9.56981 2.05078 16.5 2.05078C23.4302 2.05078 29.0684 8.03065 29.0684 15.3809V16.5826C28.7658 16.4688 28.4405 16.4062 28.1016 16.4062H26.9685C26.5694 15.2128 25.4948 14.3555 24.2344 14.3555C22.6351 14.3555 21.334 15.7354 21.334 17.4316V25.7715C21.334 27.4677 22.6351 28.8477 24.2344 28.8477C24.5271 28.8477 24.8096 28.801 25.0762 28.7151C24.7146 29.9772 23.6074 30.8984 22.3008 30.8984H19.2341C18.835 29.705 17.7604 28.8477 16.5 28.8477C14.9007 28.8477 13.5996 30.2276 13.5996 31.9238C13.5996 33.62 14.9007 35 16.5 35C17.7604 35 18.835 34.1426 19.2341 32.9492H22.3008C24.9662 32.9492 27.1348 30.6493 27.1348 27.8223V26.7969H28.1016C29.7008 26.7969 31.002 25.4169 31.002 23.7207C31.002 23.5933 31.002 16.32 31.002 15.3809C31.002 6.89985 24.4964 0 16.5 0ZM7.79883 17.4316C7.79883 16.8662 8.23253 16.4062 8.76562 16.4062C9.29872 16.4062 9.73242 16.8662 9.73242 17.4316V25.7715C9.73242 26.3369 9.29872 26.7969 8.76562 26.7969C8.23253 26.7969 7.79883 26.3369 7.79883 25.7715V17.4316ZM4.89844 18.457H5.86523V24.7461H4.89844C4.36535 24.7461 3.93164 24.2861 3.93164 23.7207V19.4824C3.93164 18.917 4.36535 18.457 4.89844 18.457ZM16.5 32.9492C15.9669 32.9492 15.5332 32.4892 15.5332 31.9238C15.5332 31.3584 15.9669 30.8984 16.5 30.8984C17.0331 30.8984 17.4668 31.3584 17.4668 31.9238C17.4668 32.4892 17.0331 32.9492 16.5 32.9492ZM25.2012 25.7715C25.2012 26.3369 24.7675 26.7969 24.2344 26.7969C23.7013 26.7969 23.2676 26.3369 23.2676 25.7715V17.4316C23.2676 16.8662 23.7013 16.4062 24.2344 16.4062C24.7675 16.4062 25.2012 16.8662 25.2012 17.4316V25.7715ZM29.0684 23.7207C29.0684 24.2861 28.6347 24.7461 28.1016 24.7461H27.1348V18.457H28.1016C28.6347 18.457 29.0684 18.917 29.0684 19.4824V23.7207Z" fill="#041E42"/>
</svg>
