<svg width="33" height="35" viewBox="0 0 33 35" fill="none" xmlns="http://www.w3.org/2000/svg">
<path d="M30.5177 9.49639L30.5167 9.46915C30.5023 9.13296 30.4928 8.77728 30.487 8.38155C30.4601 6.45173 29.0136 4.85544 27.1938 4.74756C23.3997 4.52299 20.4646 3.21081 17.9567 0.618237L17.9353 0.596608C17.1173 -0.198869 15.8834 -0.198869 15.0651 0.596608L15.0437 0.618237C12.5358 3.21081 9.60071 4.52299 5.80655 4.74783C3.98701 4.85544 2.54035 6.45173 2.51341 8.38181C2.50787 8.77488 2.49805 9.13056 2.4837 9.46915L2.48219 9.53244C2.40842 13.6359 2.31678 18.7428 3.9276 23.3781C4.81332 25.9272 6.15475 28.143 7.91436 29.9644C9.91845 32.0386 12.5434 33.6854 15.7162 34.8587C15.8194 34.8969 15.9267 34.9279 16.0359 34.9511C16.19 34.9837 16.3451 35 16.5002 35C16.6553 35 16.8106 34.9837 16.9645 34.9511C17.0737 34.9279 17.1817 34.8966 17.2855 34.8582C20.4545 33.6827 23.0767 32.0352 25.079 29.9612C26.8378 28.1392 28.1793 25.9229 29.0658 23.3733C30.6826 18.7241 30.5912 13.6076 30.5177 9.49639ZM27.249 22.6627C25.55 27.5483 22.0819 30.9035 16.6465 32.9196C16.6271 32.9265 16.6064 32.9326 16.585 32.9372C16.5289 32.9489 16.4717 32.9489 16.4148 32.9369C16.3937 32.9324 16.3731 32.9265 16.3539 32.9196C10.9127 30.9072 7.4423 27.5539 5.74462 22.6681C4.25993 18.3954 4.34402 13.7074 4.41829 9.57169L4.4188 9.54873C4.4339 9.19331 4.44398 8.82107 4.44951 8.41199C4.4616 7.55509 5.10512 6.84613 5.91456 6.79834C8.06165 6.67123 9.9479 6.23117 11.6811 5.45305C13.412 4.676 14.9493 3.58065 16.3804 2.10452C16.4531 2.03936 16.5475 2.03909 16.62 2.10452C18.0513 3.58065 19.5887 4.676 21.3193 5.45305C23.0525 6.23117 24.9388 6.67123 27.0861 6.79834C27.8955 6.84613 28.5391 7.55509 28.5509 8.41225C28.5567 8.82348 28.5667 9.19571 28.5819 9.54873C28.6559 13.6893 28.7379 18.3809 27.249 22.6627Z" fill="#041E42"/>
<path d="M16.4999 8.77832C11.9651 8.77832 8.27588 12.6914 8.27588 17.5008C8.27588 22.3105 11.9651 26.2236 16.4999 26.2236C21.0346 26.2236 24.724 22.3105 24.724 17.5008C24.724 12.6914 21.0346 8.77832 16.4999 8.77832ZM16.4999 24.1696C13.0328 24.1696 10.2122 21.1781 10.2122 17.5008C10.2122 13.8236 13.0328 10.832 16.4999 10.832C19.9668 10.832 22.7874 13.8236 22.7874 17.5008C22.7874 21.1781 19.9668 24.1696 16.4999 24.1696Z" fill="#041E42"/>
<path d="M18.8635 14.7922L15.0436 18.8436L14.0068 17.7439C13.6287 17.3429 13.0156 17.3429 12.6374 17.7439C12.2595 18.145 12.2595 18.7952 12.6374 19.196L14.359 21.022C14.5481 21.2225 14.7959 21.3227 15.0436 21.3227C15.2913 21.3227 15.5391 21.2225 15.7282 21.022L20.2328 16.2443C20.6107 15.8432 20.6107 15.193 20.2328 14.7922C19.8547 14.3909 19.2416 14.3909 18.8635 14.7922Z" fill="#041E42"/>
</svg>
