<svg width="20" height="22" viewBox="0 0 20 22" fill="none" xmlns="http://www.w3.org/2000/svg">
<g clip-path="url(#clip0_357_2728)">
<path d="M4.73265 11.6037L13.8021 21.7512C14.0993 22.0835 14.5804 22.0829 14.877 21.7495C15.1734 21.4161 15.1727 20.876 14.8755 20.5435L6.34586 11L14.8758 1.45648C15.1729 1.12391 15.1737 0.584179 14.8773 0.250742C14.7286 0.0835953 14.5338 1.9034e-05 14.339 1.90149e-05C14.1446 1.89958e-05 13.9506 0.0830363 13.8021 0.249023L4.73265 10.3963C4.58954 10.556 4.50923 10.7734 4.50923 11C4.50923 11.2265 4.58977 11.4437 4.73265 11.6037Z" fill="#112137"/>
</g>
<defs>
<clipPath id="clip0_357_2728">
<rect width="19.6084" height="22" fill="white" transform="translate(19.6084 22) rotate(-180)"/>
</clipPath>
</defs>
</svg>
