<svg width="20" height="26" viewBox="0 0 20 26" fill="none" xmlns="http://www.w3.org/2000/svg">
<path d="M9.08171 2.02051C4.96514 2.02051 1.61182 6.24555 1.61182 11.4323C1.61182 16.619 4.96514 20.8522 9.08171 20.8522C10.84 20.8522 12.4571 20.0759 13.7352 18.7868L16.8467 22.7051C17.0037 22.8948 17.2134 22.9994 17.4309 22.9966C17.6484 22.9938 17.8564 22.8838 18.0103 22.6902C18.1642 22.4965 18.2518 22.2346 18.2544 21.9606C18.2569 21.6866 18.1742 21.4222 18.0239 21.2241L14.9123 17.3037C15.9363 15.6909 16.5532 13.6502 16.5532 11.4323C16.5532 6.24555 13.1983 2.02051 9.08171 2.02051V2.02051ZM9.08171 4.11249C12.301 4.11249 14.8913 7.37615 14.8913 11.4323C14.8913 15.4884 12.301 18.7603 9.08171 18.7603C5.86245 18.7603 3.27215 15.4884 3.27215 11.4323C3.27215 7.37615 5.86245 4.11249 9.08171 4.11249Z" fill="#443297"/>
</svg>
